<svg viewBox="0 0 1024 1024" xmlns="http://www.w3.org/2000/svg"><path d="M274.432 118.101333L218.453333 174.08v223.232c0 211.626667 0.682667 225.28 14.336 262.826667 27.306667 72.362667 58.709333 109.226667 126.293334 147.456 34.133333 19.114667 366.592 175.445333 374.101333 175.445333 4.778667 0 10.922667-522.24 6.826667-572.757333l-4.778667-55.296H590.506667L518.826667 426.666667 447.829333 497.664l64.853334 2.048 64.170666 2.048 2.048 111.274667c1.365333 96.256 0 111.274667-8.874666 115.370666-15.018667 5.461333-117.418667-40.96-150.186667-67.584-43.008-35.498667-44.373333-44.373333-44.373333-253.269333 0-151.552 2.048-189.098667 9.557333-195.242667 6.144-5.461333 37.546667-7.509333 93.525333-6.144l84.650667 2.048 3.413333 49.834667 3.413334 49.152 122.88-122.88 122.88-122.88h-484.693334l-56.661333 56.661333z" fill="currentColor"></path></svg>