<svg viewBox="0 0 1024 1024" xmlns="http://www.w3.org/2000/svg"><path d="M800.8 406.4c0-35.2-6.4-70.4-22.4-99.2-9.6-16-19.2-32-32-44.8-12.8-12.8-25.6-22.4-41.6-32-35.2-19.2-73.6-35.2-169.6-60.8S384.8 128 384.8 128v715.2L544.8 896V288c0-19.2 16-35.2 32-35.2s32 16 32 35.2v265.6c22.4 9.6 57.6 19.2 83.2 19.2 16 0 32-3.2 48-12.8 16-9.6 28.8-22.4 35.2-35.2 9.6-16 16-35.2 19.2-54.4 6.4-19.2 6.4-41.6 6.4-64zM175.2 716.8c54.4-19.2 179.2-57.6 179.2-57.6v-96s-153.6 48-224 73.6c-16 6.4-35.2 12.8-51.2 19.2-19.2 9.6-38.4 16-57.6 28.8-6.4 6.4-16 12.8-19.2 19.2-3.2 6.4-3.2 19.2 0 25.6 3.2 9.6 12.8 19.2 19.2 25.6 16 12.8 35.2 19.2 51.2 25.6 57.6 19.2 115.2 28.8 176 25.6 28.8 0 73.6-3.2 99.2-9.6v-83.2s-22.4 6.4-83.2 25.6l-28.8 9.6c-12.8 3.2-28.8 3.2-44.8 3.2-12.8 0-25.6 0-38.4-6.4-3.2-3.2-9.6-3.2-9.6-9.6 0-3.2 0-6.4 3.2-9.6 12.8-3.2 22.4-6.4 28.8-9.6zM1024.8 691.2c0-12.8-6.4-22.4-16-28.8-12.8-12.8-32-19.2-48-25.6l-28.8-9.6c-51.2-16-102.4-22.4-156.8-22.4-16 0-44.8 0-60.8 3.2-44.8 6.4-134.4 32-134.4 32v96s134.4-41.6 192-64c19.2-6.4 41.6-9.6 60.8-9.6 12.8 0 25.6 0 38.4 6.4 3.2 3.2 9.6 3.2 9.6 9.6 3.2 6.4-3.2 9.6-6.4 12.8-9.6 6.4-22.4 9.6-32 16C759.2 736 576.8 796.8 576.8 796.8v92.8s233.6-80 342.4-118.4c19.2-6.4 35.2-12.8 54.4-19.2 16-6.4 32-16 44.8-32 3.2-9.6 6.4-19.2 6.4-28.8z"></path></svg>