<svg viewBox="0 0 1024 1024" xmlns="http://www.w3.org/2000/svg"><path d="M976.727273 558.545455H604.363636c-27.927273 0-46.545455 18.618182-46.545454 46.545454v372.363636c0 27.927273 18.618182 46.545455 46.545454 46.545455h372.363637c27.927273 0 46.545455-18.618182 46.545454-46.545455V605.090909c0-27.927273-18.618182-46.545455-46.545454-46.545454z m-46.545455 372.363636H650.909091V651.636364h279.272727v279.272727zM297.163636 27.927273C278.545455-9.309091 232-9.309091 213.381818 27.927273L8.581818 400.290909c-9.309091 18.618182-9.309091 27.927273 0 46.545455S27.2 465.454545 45.818182 465.454545h418.909091c18.618182 0 27.927273-9.309091 37.236363-18.618181 9.309091-9.309091 9.309091-27.927273 0-46.545455l-204.8-372.363636zM129.6 372.363636l121.018182-232.727272 130.327273 232.727272H129.6zM790.545455 465.454545c130.327273 0 232.727273-102.4 232.727272-232.727272S920.872727 0 790.545455 0 557.818182 102.4 557.818182 232.727273s102.4 232.727273 232.727273 232.727272z m0-372.363636c74.472727 0 139.636364 65.163636 139.636363 139.636364s-65.163636 139.636364-139.636363 139.636363-139.636364-65.163636-139.636364-139.636363 65.163636-139.636364 139.636364-139.636364zM455.418182 567.854545c-18.618182-18.618182-46.545455-18.618182-65.163637 0L232 726.109091 83.054545 567.854545c-18.618182-18.618182-46.545455-18.618182-65.163636 0-18.618182 18.618182-18.618182 46.545455 0 65.163637L166.836364 791.272727 17.890909 940.218182c-18.618182 18.618182-18.618182 46.545455 0 65.163636 9.309091 9.309091 18.618182 9.309091 37.236364 9.309091s27.927273 0 37.236363-9.309091l139.636364-148.945454 148.945455 148.945454c9.309091 9.309091 18.618182 9.309091 37.236363 9.309091s27.927273 0 37.236364-9.309091c18.618182-18.618182 18.618182-46.545455 0-65.163636L297.163636 791.272727l148.945455-148.945454c18.618182-18.618182 18.618182-55.854545 9.309091-74.472728z" fill="currentColor"></path></svg>